<svg width="675" height="350" xmlns="http://www.w3.org/2000/svg">
 <!-- Created with Method Draw - http://github.com/duopixel/Method-Draw/ -->

 <g>
  <title>background</title>
  <rect fill="#000000" width="676" height="351" y="-1" x="-1"/>
 </g>
 <g>
  <title>Layer 1</title>
  <g stroke="null" id="svg_11">
   <path stroke="#EC2854" id="svg_4" d="m238.70758,54.58248c-22.89642,9.9496 -72.7424,49.01765 -50.00738,84.22225c10.05417,15.56758 27.50827,26.56587 43.41588,31.77331c14.80535,4.84443 32.96715,-1.09623 46.50332,5.36013c-2.88326,7.35092 -13.07677,34.12422 -21.81348,32.15073c-16.31596,-3.66466 -32.8154,-0.64103 -45.62178,12.22272c-26.15355,-37.87819 -63.418,-53.26139 -104.48589,-42.74855c30.44119,-39.18185 23.06473,-80.21764 -8.92294,-117.57725c-19.31235,-22.55405 -66.20884,-54.68605 -96.35481,-41.56301c75.31112,-32.7543 167.08996,-8.00203 237.28708,36.15966c-12.16075,5.28523 -4.98984,-3.13887 0,0zm190.60856,0c22.89366,9.95104 72.7424,49.01765 50.00738,84.22225c-10.05417,15.56758 -27.50689,26.56731 -43.41864,31.77619c-14.80397,4.84731 -32.96577,-1.09767 -46.50746,5.36013c2.90258,7.36388 13.05608,34.09829 21.81348,32.14929c16.31458,-3.66177 32.81816,-0.64535 45.61902,12.22128c26.15493,-37.87675 63.42352,-53.26283 104.48451,-42.74855c-30.4274,-39.19049 -23.07439,-80.21044 8.92708,-117.57725c19.30959,-22.54973 66.2116,-54.69181 96.35757,-41.56445c-75.30422,-32.7471 -167.08582,-8.01211 -237.28294,36.1611c12.16351,5.28523 4.98846,-3.14031 0,0z" stroke-miterlimit="10" fill="#EC2854"/>
   <path stroke="null" id="svg_5" d="m250.06957,142.56879l32.00423,0l0,22.93147c9.48304,-9.45406 19.52618,-16.2403 30.13079,-20.36448c10.60462,-4.12418 22.39565,-6.18699 35.37171,-6.18699c28.44774,0 47.66214,7.99771 57.64458,23.9888c5.48924,8.74965 8.23455,21.27056 8.23455,37.56416l0,103.64464l-34.24876,0l0,-101.83392c0,-9.85596 -1.80997,-17.80181 -5.42854,-23.83611c-5.99277,-10.05764 -16.84295,-15.08645 -32.56294,-15.08645c-7.98623,0 -14.53772,0.65543 -19.6531,1.96341c-9.23334,2.21262 -17.34373,6.63787 -24.32978,13.27573c-5.61478,5.33132 -9.26507,10.83551 -10.9495,16.51832c-1.68443,5.68281 -2.52734,13.80296 -2.52734,24.36333l0,84.63568l-33.68728,0l0.00138,-161.5776z" fill="#ffffff"/>
   <g stroke="null" transform="matrix(0.1314751780166873,0,0,0.1296482942286793,616.4726547535802,-7.264602304295076) " id="svg_6">
    <path stroke="null" id="svg_7" d="m-2141.00672,1043.20499c-270.1,0 -490,-219.8 -490,-490c0,-270.2 219.9,-490 490,-490c270.3,0 490,219.8 490,490c0,270.2 -219.7,490 -490,490l0,0zm0,-897.3c-224.6,0 -407.3,182.7 -407.3,407.3c0,224.6 182.7,407.3 407.3,407.3c224.6,0 407.3,-182.7 407.3,-407.3c0,-224.6 -182.7,-407.3 -407.3,-407.3l0,0z" fill="#EC2854"/>
    <path stroke="null" id="svg_8" d="m-1941.30672,305.30499l54.8,54.8l-433,433l-54.8,-54.8l433,-433z" fill="#EC2854"/>
    <path stroke="null" id="svg_9" d="m-1886.40672,738.30499l-54.9,54.9l-433,-433l54.8,-54.8l433.1,432.9z" fill="#EC2854"/>
   </g>
  </g>
 </g>
</svg>